<?xml version="1.0" encoding="utf-8"?>
<!-- Generated by IcoMoon.io -->
<!DOCTYPE svg PUBLIC "-//W3C//DTD SVG 1.1//EN" "http://www.w3.org/Graphics/SVG/1.1/DTD/svg11.dtd">
<svg version="1.1" xmlns="http://www.w3.org/2000/svg" xmlns:xlink="http://www.w3.org/1999/xlink" width="512" height="512" viewBox="0 0 512 512">
<g>
</g>
	<path d="M331.131 169.421c73.4-2.918 88.064 161.454 5.878 161.454v44.042c164.413-14.684 129.157-255.375-5.878-246.569v41.072z" fill="#000000" />
	<path d="M331.172 170.526c22.774-0.901 36.997 14.326 44.943 27.269 18.719 30.525 20.787 76.964 4.711 105.687-9.625 17.203-24.781 26.296-43.807 26.296h-1.096v46.336l1.198-0.103c82.78-7.404 115.108-71.742 110.438-132.229-2.427-31.468-14.909-61.747-34.253-83.067-21.76-23.993-50.197-35.574-82.238-33.485l-1.045 0.072v43.264l1.147-0.041zM331.202 129.464c39.598-2.591 65.608 16.384 80.456 32.748 19.005 20.971 31.293 50.76 33.69 81.746 4.587 59.413-27.156 122.594-108.442 129.853l1.209 1.096v-44.042l-1.106 1.096c19.876 0 35.697-9.482 45.742-27.423 16.435-29.358 14.346-76.769-4.762-107.93-11.653-18.995-28.313-29.061-46.909-28.324l1.147 1.106v-41.072l-1.024 1.147z" fill="#000000" />
	<path d="M83.129 83.917c9.564-16.701 20.306-18.197 35.645-15.145 2.038 0.409 4.106-0.451 5.263-2.181 7.004-10.496 14.224-16.353 21.494-17.408 6.963-1.014 14.745 2.171 23.818 9.718 2.13 1.772 5.274 1.536 7.107-0.532 8.028-9.063 15.422-13.558 22.6-13.783 10.014-0.297 19.681 7.956 28.651 16.927 1.454 1.444 3.625 1.904 5.53 1.136 7.148-2.867 16.097-5.816 21.832-3.164 2.928 1.362 5.099 4.229 6.615 8.796 0.901 2.683 3.789 4.126 6.471 3.236 16.875-5.602 27.966-1.751 34.918 12.124v0c1.26 2.529 4.342 3.564 6.871 2.294 2.529-1.26 3.553-4.342 2.294-6.871v0c-6.462-12.892-19.897-26.358-47.309-17.264 2.683-0.891 5.57 0.563 6.462 3.236-2.427-7.291-6.471-12.288-12.022-14.858-9.237-4.27-20.327-0.901-29.952 2.949 1.905-0.758 4.065-0.307 5.519 1.147-10.588-10.599-22.303-20.347-36.198-19.927-10.148 0.297-19.947 5.929-29.952 17.213 1.833-2.058 4.976-2.314 7.096-0.542-11.428-9.523-21.852-13.445-31.846-11.981-10.393 1.516-19.722 8.684-28.519 21.873 1.147-1.721 3.225-2.581 5.263-2.181-15.555-3.102-33.249-3.144-46.541 20.101v0c-1.403 2.448-0.543 5.591 1.904 6.984 2.448 1.413 5.581 0.553 6.984-1.894v0z" fill="#000000" />
	<path d="M69.888 96.051c-2.96 117.401-2.96 234.834-5.878 352.266 0 14.663 0 29.337 17.613 29.337 73.37 0 149.699 0 226.038 0 8.786-2.918 17.603-5.858 14.684-23.46-2.969-120.371-5.898-240.743-8.796-361.083l-243.661 2.939zM90.45 427.735h199.598l11.735 26.46h-220.16l8.827-26.46zM119.778 163.564v249.498c0 2.959-5.858 5.878-8.796 5.878v0c-5.868 0-8.786-2.918-8.786-5.878v-249.498h-20.572v-58.737h220.16v58.737h-182.006z" fill="#000000" />
</svg>
